<svg width="20" height="20" viewBox="0 0 20 20" fill="none" xmlns="http://www.w3.org/2000/svg">
<path d="M9.37484 10.7078V13.4162C9.37484 13.5935 9.43466 13.742 9.55432 13.8617C9.67397 13.9813 9.82247 14.0411 9.99982 14.0411C10.1772 14.0411 10.3257 13.9813 10.4453 13.8617C10.565 13.742 10.6248 13.5935 10.6248 13.4162V10.7078H13.3332C13.5105 10.7078 13.659 10.648 13.7786 10.5283C13.8983 10.4087 13.9581 10.2602 13.9581 10.0828C13.9581 9.90548 13.8983 9.75698 13.7786 9.63733C13.659 9.51767 13.5105 9.45785 13.3332 9.45785H10.6248V6.74949C10.6248 6.57214 10.565 6.42365 10.4453 6.30399C10.3257 6.18434 10.1772 6.12451 9.99982 6.12451C9.82247 6.12451 9.67397 6.18434 9.55432 6.30399C9.43466 6.42365 9.37484 6.57214 9.37484 6.74949V9.45785H6.66648C6.48914 9.45785 6.34064 9.51767 6.22098 9.63733C6.10133 9.75698 6.0415 9.90548 6.0415 10.0828C6.0415 10.2602 6.10133 10.4087 6.22098 10.5283C6.34064 10.648 6.48914 10.7078 6.66648 10.7078H9.37484ZM4.42292 17.1661C4.00198 17.1661 3.64567 17.0203 3.354 16.7286C3.06234 16.437 2.9165 16.0807 2.9165 15.6597V4.50593C2.9165 4.08499 3.06234 3.72868 3.354 3.43701C3.64567 3.14535 4.00198 2.99951 4.42292 2.99951H15.5767C15.9977 2.99951 16.354 3.14535 16.6456 3.43701C16.9373 3.72868 17.0831 4.08499 17.0831 4.50593V15.6597C17.0831 16.0807 16.9373 16.437 16.6456 16.7286C16.354 17.0203 15.9977 17.1661 15.5767 17.1661H4.42292ZM4.42292 15.9162H15.5767C15.6408 15.9162 15.6996 15.8895 15.753 15.836C15.8064 15.7826 15.8332 15.7238 15.8332 15.6597V4.50593C15.8332 4.44182 15.8064 4.38305 15.753 4.32962C15.6996 4.2762 15.6408 4.24949 15.5767 4.24949H4.42292C4.35881 4.24949 4.30004 4.2762 4.24661 4.32962C4.19319 4.38305 4.16648 4.44182 4.16648 4.50593V15.6597C4.16648 15.7238 4.19319 15.7826 4.24661 15.836C4.30004 15.8895 4.35881 15.9162 4.42292 15.9162Z" fill="#787486"/>
</svg>
