<svg width="82" height="76" viewBox="0 0 82 76" fill="none" xmlns="http://www.w3.org/2000/svg">
<path d="M80.2344 26.3985L42.7344 1.39851C42.2208 1.05589 41.6173 0.873047 41 0.873047C40.3827 0.873047 39.7792 1.05589 39.2656 1.39851L1.76563 26.3985C1.33754 26.6841 0.986619 27.071 0.744023 27.5249C0.501426 27.9787 0.374666 28.4855 0.375001 29.0001V69.6251C0.375001 71.2827 1.03348 72.8724 2.20558 74.0445C3.37769 75.2166 4.9674 75.8751 6.625 75.8751H75.375C77.0326 75.8751 78.6223 75.2166 79.7944 74.0445C80.9665 72.8724 81.625 71.2827 81.625 69.6251V29.0001C81.6253 28.4855 81.4986 27.9787 81.256 27.5249C81.0134 27.071 80.6625 26.6841 80.2344 26.3985ZM28.7812 50.8751L6.625 66.5001V35.0665L28.7812 50.8751ZM35.1758 54.0001H46.8242L68.9453 69.6251H13.0547L35.1758 54.0001ZM53.2188 50.8751L75.375 35.0665V66.5001L53.2188 50.8751Z" fill="#524F5B"/>
<path d="M80.2344 26.3985L42.7344 1.39851C42.2208 1.05589 41.6173 0.873047 41 0.873047C40.3827 0.873047 39.7792 1.05589 39.2656 1.39851L1.76563 26.3985C1.33754 26.6841 0.986619 27.071 0.744023 27.5249C0.501426 27.9787 0.374666 28.4855 0.375001 29.0001V69.6251C0.375001 71.2827 1.03348 72.8724 2.20558 74.0445C3.37769 75.2166 4.9674 75.8751 6.625 75.8751H75.375C77.0326 75.8751 78.6223 75.2166 79.7944 74.0445C80.9665 72.8724 81.625 71.2827 81.625 69.6251V29.0001C81.6253 28.4855 81.4986 27.9787 81.256 27.5249C81.0134 27.071 80.6625 26.6841 80.2344 26.3985ZM28.7812 50.8751L6.625 66.5001V35.0665L28.7812 50.8751ZM35.1758 54.0001H46.8242L68.9453 69.6251H13.0547L35.1758 54.0001ZM53.2188 50.8751L75.375 35.0665V66.5001L53.2188 50.8751Z" fill="url(#paint0_linear_37019_1494)"/>
<defs>
<linearGradient id="paint0_linear_37019_1494" x1="41" y1="0.873047" x2="41" y2="137.104" gradientUnits="userSpaceOnUse">
<stop stop-color="#2F2E33"/>
<stop offset="1" stop-color="#524F5B"/>
</linearGradient>
</defs>
</svg>
