<svg width="82" height="70" viewBox="0 0 82 70" fill="none" xmlns="http://www.w3.org/2000/svg">
<path d="M75.375 0.625H6.625C4.9674 0.625 3.37768 1.28348 2.20558 2.45558C1.03348 3.62768 0.375 5.2174 0.375 6.875V63.125C0.375 64.7826 1.03348 66.3723 2.20558 67.5444C3.37768 68.7165 4.9674 69.375 6.625 69.375H75.375C77.0326 69.375 78.6223 68.7165 79.7944 67.5444C80.9665 66.3723 81.625 64.7826 81.625 63.125V6.875C81.625 5.2174 80.9665 3.62768 79.7944 2.45558C78.6223 1.28348 77.0326 0.625 75.375 0.625ZM69.125 53.75C69.9538 53.75 70.7487 54.0792 71.3347 54.6653C71.9208 55.2513 72.25 56.0462 72.25 56.875C72.25 57.7038 71.9208 58.4987 71.3347 59.0847C70.7487 59.6708 69.9538 60 69.125 60H12.875C12.0462 60 11.2513 59.6708 10.6653 59.0847C10.0792 58.4987 9.75 57.7038 9.75 56.875V13.125C9.75 12.2962 10.0792 11.5013 10.6653 10.9153C11.2513 10.3292 12.0462 10 12.875 10C13.7038 10 14.4987 10.3292 15.0847 10.9153C15.6708 11.5013 16 12.2962 16 13.125V37.7031L29.625 26.3477C30.1427 25.9162 30.7861 25.6637 31.4591 25.6278C32.1321 25.5919 32.7987 25.7745 33.3594 26.1484L50.1562 37.3555L67.1133 23.2227C67.7504 22.6922 68.5722 22.4366 69.3978 22.5121C70.2234 22.5875 70.9852 22.9879 71.5156 23.625C72.0461 24.2621 72.3017 25.0839 72.2262 25.9095C72.1507 26.7351 71.7504 27.4969 71.1133 28.0273L52.3633 43.6523C51.8455 44.0838 51.2022 44.3363 50.5292 44.3722C49.8562 44.4081 49.1896 44.2255 48.6289 43.8516L31.832 32.6445L16 45.8398V53.75H69.125Z" fill="url(#paint0_linear_37019_1485)"/>
<defs>
<linearGradient id="paint0_linear_37019_1485" x1="41" y1="0.625" x2="41" y2="125.5" gradientUnits="userSpaceOnUse">
<stop stop-color="#2F2E33"/>
<stop offset="1" stop-color="#524F5B"/>
</linearGradient>
</defs>
</svg>
