<svg width="20" height="20" viewBox="0 0 20 20" fill="none" xmlns="http://www.w3.org/2000/svg">
<path d="M8.73414 17.9168C8.54717 17.9168 8.38531 17.854 8.24856 17.7285C8.11181 17.603 8.02954 17.4467 8.00176 17.2597L7.75979 15.3783C7.53649 15.3035 7.30759 15.1988 7.07308 15.0642C6.83856 14.9296 6.62889 14.7854 6.44406 14.6315L4.70368 15.3655C4.52526 15.4435 4.34818 15.4526 4.17243 15.3927C3.99668 15.3329 3.85859 15.2207 3.75816 15.0562L2.50499 12.8735C2.4099 12.709 2.38051 12.5333 2.41685 12.3463C2.45317 12.1593 2.54665 12.0087 2.69728 11.8944L4.2037 10.755C4.18447 10.631 4.17084 10.5066 4.16283 10.3816C4.15481 10.2566 4.15081 10.1321 4.15081 10.0082C4.15081 9.88957 4.15481 9.7691 4.16283 9.64677C4.17084 9.52444 4.18447 9.39062 4.2037 9.24533L2.69728 8.10589C2.54665 7.99159 2.45183 7.84095 2.41285 7.65398C2.37385 7.46702 2.40456 7.29128 2.50499 7.12675L3.75816 4.96012C3.85859 4.79559 3.99535 4.68341 4.16843 4.62358C4.3415 4.56375 4.51724 4.57283 4.69566 4.65083L6.43604 5.37679C6.6369 5.21759 6.85138 5.07202 7.07947 4.94008C7.30758 4.80812 7.53168 4.70208 7.75176 4.62195L8.00176 2.74056C8.02954 2.55359 8.11181 2.39734 8.24856 2.27181C8.38531 2.14627 8.54717 2.0835 8.73414 2.0835H11.2581C11.4451 2.0835 11.6083 2.14627 11.7477 2.27181C11.8871 2.39734 11.9707 2.55359 11.9985 2.74056L12.2405 4.62998C12.4905 4.72078 12.7167 4.82682 12.9192 4.94808C13.1217 5.06934 13.326 5.21225 13.5322 5.37679L15.3046 4.65083C15.483 4.57283 15.6588 4.56241 15.8318 4.61958C16.0049 4.67673 16.1417 4.78757 16.2421 4.9521L17.4953 7.12675C17.5957 7.29128 17.6264 7.46702 17.5874 7.65398C17.5484 7.84095 17.4536 7.99159 17.303 8.10589L15.7645 9.26935C15.7945 9.40398 15.8107 9.52978 15.8134 9.64677C15.8161 9.76375 15.8174 9.88155 15.8174 10.0001C15.8174 10.1134 15.8147 10.2285 15.8094 10.3455C15.8041 10.4625 15.7848 10.5963 15.7517 10.747L17.2741 11.8944C17.4248 12.0087 17.5196 12.1593 17.5586 12.3463C17.5976 12.5333 17.5669 12.709 17.4665 12.8735L16.2133 15.0434C16.1128 15.2079 15.9726 15.3209 15.7926 15.3823C15.6126 15.4437 15.4333 15.4355 15.2549 15.3575L13.5322 14.6235C13.326 14.788 13.1155 14.9336 12.9008 15.0602C12.686 15.1868 12.4659 15.2902 12.2405 15.3703L11.9985 17.2597C11.9707 17.4467 11.8871 17.603 11.7477 17.7285C11.6083 17.854 11.4451 17.9168 11.2581 17.9168H8.73414ZM9.16681 16.6668H10.8046L11.1043 14.4344C11.5295 14.3233 11.9181 14.1655 12.2702 13.9609C12.6222 13.7563 12.9617 13.4932 13.2886 13.1716L15.3591 14.0418L16.1796 12.6251L14.3719 11.263C14.4414 11.0472 14.4887 10.8356 14.5138 10.6284C14.5389 10.4211 14.5514 10.2117 14.5514 10.0001C14.5514 9.78327 14.5389 9.57387 14.5138 9.37193C14.4887 9.17002 14.4414 8.96382 14.3719 8.75335L16.1957 7.37514L15.3751 5.95848L13.2806 6.8415C13.0017 6.54341 12.6676 6.28006 12.2782 6.05143C11.8888 5.8228 11.4948 5.66093 11.0963 5.56585L10.8335 3.33348H9.17962L8.90399 5.55783C8.47877 5.65826 8.08614 5.81211 7.7261 6.01937C7.36606 6.22664 7.02258 6.49373 6.69566 6.82066L4.62514 5.95848L3.80462 7.37514L5.60431 8.7165C5.53486 8.91414 5.48625 9.1198 5.45847 9.33348C5.43069 9.54716 5.41681 9.77205 5.41681 10.0082C5.41681 10.225 5.43069 10.4376 5.45847 10.646C5.48625 10.8543 5.53219 11.06 5.59628 11.263L3.80462 12.6251L4.62514 14.0418L6.68764 13.1668C7.00388 13.4916 7.34201 13.7576 7.70206 13.9649C8.0621 14.1722 8.46007 14.3313 8.89597 14.4425L9.16681 16.6668ZM10.0097 12.5001C10.7031 12.5001 11.2931 12.2568 11.7798 11.7702C12.2664 11.2835 12.5097 10.6935 12.5097 10.0001C12.5097 9.30678 12.2664 8.71677 11.7798 8.23012C11.2931 7.74348 10.7031 7.50016 10.0097 7.50016C9.30784 7.50016 8.7157 7.74348 8.23333 8.23012C7.75097 8.71677 7.50979 9.30678 7.50979 10.0001C7.50979 10.6935 7.75097 11.2835 8.23333 11.7702C8.7157 12.2568 9.30784 12.5001 10.0097 12.5001Z" fill="#787486"/>
</svg>
